<mxfile host="app.diagrams.net" modified="2023-11-03T08:46:38.375Z" agent="Mozilla/5.0 (X11; Linux x86_64) AppleWebKit/537.36 (KHTML, like Gecko) Chrome/118.0.0.0 Safari/537.36" version="22.0.8" etag="F9-pSSArCmIHFF94Naxb" type="github">
  <diagram name="Seite-1" id="T4lZtY7ADZJj6SEgP3Pd">
    <mxGraphModel>
      <root>
        <mxCell id="0" />
        <mxCell id="1" parent="0" />
      </root>
    </mxGraphModel>
  </diagram>
</mxfile>
